HIERARCHY
ROOT hip
{
	OFFSET 0.000000 0.000000 0.000000 
	CHANNELS 6 Xposition Yposition Zposition Xrotation Zrotation Yrotation
	JOINT abdomen
	{
		OFFSET 0.000000 3.402643 0.000000 
		CHANNELS 3 Xrotation Zrotation Yrotation
		JOINT chest
		{
			OFFSET 0.000000 8.438565 -0.680529 
			CHANNELS 3 Xrotation Zrotation Yrotation
			JOINT neck
			{
				OFFSET 0.000000 10.207942 -0.272212 
				CHANNELS 3 Xrotation Zrotation Yrotation
				JOINT head
				{
					OFFSET 0.000000 3.130431 0.000000 
					CHANNELS 3 Xrotation Zrotation Yrotation
					End Site
					{
						OFFSET 0.000000 3.130435 0.000000 
					}
				}
			}
			JOINT lCollar
			{
				OFFSET 3.470700 6.669187 -0.816635 
				CHANNELS 3 Yrotation Zrotation Xrotation
				JOINT lShldr
				{
					OFFSET 3.198488 0.000000 0.000000 
					CHANNELS 3 Zrotation Yrotation Xrotation
					JOINT lForeArm
					{
						OFFSET 10.139888 0.000000 0.000000 
						CHANNELS 3 Yrotation Zrotation Xrotation
						JOINT lHand
						{
							OFFSET 8.370511 0.000000 0.000000 
							CHANNELS 3 Zrotation Yrotation Xrotation
							End Site
							{
								OFFSET 4.083176 0.000000 0.000000 
							}
						}
					}
				}
			}
			JOINT rCollar
			{
				OFFSET -3.470700 6.669187 -0.816635 
				CHANNELS 3 Yrotation Zrotation Xrotation
				JOINT rShldr
				{
					OFFSET -3.198488 0.000000 0.000000 
					CHANNELS 3 Zrotation Yrotation Xrotation
					JOINT rForeArm
					{
						OFFSET -10.139888 0.000000 0.000000 
						CHANNELS 3 Yrotation Zrotation Xrotation
						JOINT rHand
						{
							OFFSET -8.370511 0.000000 0.000000 
							CHANNELS 3 Zrotation Yrotation Xrotation
							End Site
							{
								OFFSET -4.083176 0.000000 0.000000 
							}
						}
					}
				}
			}
		}
	}
	JOINT lThigh
	{
		OFFSET 5.308129 -1.633274 1.361059 
		CHANNELS 3 Xrotation Zrotation Yrotation
		JOINT lShin
		{
			OFFSET -2.041588 -20.007561 0.000000 
			CHANNELS 3 Xrotation Zrotation Yrotation
			JOINT lFoot
			{
				OFFSET 0.000000 -19.190928 -1.224953 
				CHANNELS 3 Xrotation Yrotation Zrotation
				End Site
				{
					OFFSET 0.000000 -2.449906 4.627600 
				}
			}
		}
	}
	JOINT rThigh
	{
		OFFSET -5.308129 -1.633274 1.361059 
		CHANNELS 3 Xrotation Zrotation Yrotation
		JOINT rShin
		{
			OFFSET 2.041588 -20.007561 0.000000 
			CHANNELS 3 Xrotation Zrotation Yrotation
			JOINT rFoot
			{
				OFFSET 0.000000 -19.190928 -1.224953 
				CHANNELS 3 Xrotation Yrotation Zrotation
				End Site
				{
					OFFSET 0.000000 -2.449906 4.627600 
				}
			}
		}
	}
}
MOTION
Frames: 20
Frame Time: 0.016667
-1.362443 45.271633 43.262142 12.273884 17.598116 -75.325256 4.241232 12.558397 -3.260231 0.000000 0.000000 0.000000 -22.543001 0.644258 -19.532490 0.000000 0.000000 0.000000 0.000000 0.000000 0.000000 -13.999488 0.250748 3.912895 -95.695572 30.325869 14.665415 -30.520243 -35.244949 -31.876822 0.000000 0.000000 0.000000 24.873379 -1.834891 5.178179 94.720055 -40.502960 32.839081 -5.958605 20.088930 -54.186340 -55.375675 24.208670 -23.029196 38.132912 -10.002689 -15.649283 15.533867 -11.161121 -15.657310 -46.069847 -20.446915 -7.890353 51.432774 5.690964 5.182611 15.364973 7.325220 16.604856 
-1.916517 42.349350 42.732731 14.928204 16.993025 -69.895828 5.969743 12.810385 -4.074724 0.000000 0.000000 0.000000 -30.618347 -0.214462 -23.789249 0.000000 0.000000 0.000000 0.000000 0.000000 0.000000 -33.286407 6.788363 15.518167 -86.031410 28.885761 8.310713 -27.386553 -37.301830 -32.182575 0.000000 0.000000 0.000000 40.535320 -6.210476 18.325796 89.153297 -38.858341 29.974432 -1.675646 17.719631 -43.942783 -48.869648 22.938940 -24.506701 28.357954 -9.068992 -12.223105 8.499983 -7.869874 -15.573482 -38.981903 -14.568988 -10.018414 38.234322 6.122132 2.963529 10.979340 3.349865 18.069778 
-0.360199 42.786015 41.545902 14.228209 12.904866 -64.438438 6.131628 11.400656 -5.130562 0.000000 0.000000 0.000000 -33.055058 -2.351567 -26.909588 0.000000 0.000000 0.000000 0.000000 0.000000 0.000000 -47.778374 3.355499 23.860813 -57.039497 17.824656 -1.834281 -17.240250 -31.270823 -29.687614 0.000000 0.000000 0.000000 51.006451 -5.368859 27.685499 56.107479 -32.702633 7.778298 -4.301586 9.770726 -25.303368 -48.930885 20.126482 -20.261887 35.702637 -4.206398 -17.893572 -1.865722 -6.151960 -12.095387 -35.640537 -12.830169 -10.049368 41.589848 5.781130 2.592525 -2.302323 -3.675410 15.202673 
1.179688 43.213543 40.373070 13.134201 8.916645 -59.086704 6.353850 9.982668 -6.137582 0.000000 0.000000 0.000000 -35.328163 -4.583206 -29.900690 0.000000 0.000000 0.000000 0.000000 0.000000 0.000000 -62.460548 2.129581 32.681217 -31.670391 3.880915 -5.067858 -7.491316 -25.686329 -26.257097 0.000000 0.000000 0.000000 61.384911 -6.189096 37.002308 30.159147 -18.556288 -6.209163 -9.274420 3.152369 -6.829998 -49.180244 17.352753 -16.133781 42.531185 1.256461 -22.806536 -12.195401 -5.112280 -8.416855 -32.338413 -11.120367 -9.994699 44.967293 5.448983 2.232450 -15.964989 -9.767517 10.789840 
1.487592 42.956020 40.249916 9.850438 6.412889 -60.560425 8.233550 7.635478 -4.245559 0.000000 0.000000 0.000000 -34.800701 -4.841822 -29.098593 0.000000 0.000000 0.000000 0.000000 0.000000 0.000000 -69.035385 1.074990 33.772575 -22.683638 0.047522 -1.585864 -7.061738 -20.374176 -28.015907 0.000000 0.000000 0.000000 65.469299 -4.304821 43.635910 16.475121 -6.483142 -13.978477 -13.695892 4.321226 -5.902946 -47.481865 16.649523 -15.720092 47.626816 1.662772 -22.085178 -15.540758 -5.254835 -8.160363 -30.550985 -13.111598 -10.962614 50.051922 3.466238 3.587504 -20.863466 -8.573262 10.317570 
1.782899 42.714787 40.130356 6.651901 3.874199 -61.943348 9.980708 5.268676 -2.441089 0.000000 0.000000 0.000000 -34.243950 -5.087611 -28.256519 0.000000 0.000000 0.000000 0.000000 0.000000 0.000000 -75.600365 0.211517 35.004059 -13.584065 -3.154598 2.337493 -6.797451 -15.091849 -29.660742 0.000000 0.000000 0.000000 69.686295 -2.950293 50.264366 4.647342 6.746341 -18.634609 -18.069355 5.556303 -5.152687 -45.784195 15.956162 -15.297928 52.667694 1.995568 -21.351328 -18.867434 -5.365355 -7.899850 -28.726467 -15.065181 -11.960862 55.004288 1.386733 4.834694 -25.660408 -7.355092 9.916254 
1.133500 43.694485 40.281513 5.009672 4.567590 -67.286308 7.692603 5.066446 -1.578195 0.000000 0.000000 0.000000 -30.386982 -4.499995 -23.426592 0.000000 0.000000 0.000000 0.000000 0.000000 0.000000 -80.005745 3.965974 37.935555 -13.196424 -3.452269 -2.582830 -5.124608 -13.375369 -30.518044 0.000000 0.000000 0.000000 70.003868 -4.788812 49.557671 4.731004 4.098605 -17.712877 -19.615740 6.336196 -10.593143 -42.706169 16.776033 -13.878039 52.549938 0.718234 -20.612467 -18.039400 -3.679294 -7.591043 -28.277922 -15.759304 -10.439014 53.262047 1.199817 6.736165 -24.537659 -5.237653 9.713172 
0.485810 44.676445 40.432083 3.316764 5.098433 -72.664925 5.407484 4.911728 -0.715289 0.000000 0.000000 0.000000 -26.508410 -4.230962 -18.587994 0.000000 0.000000 0.000000 0.000000 0.000000 0.000000 -84.204254 7.916078 40.571545 -12.840952 -3.759888 -7.429749 -3.507308 -11.651433 -31.350677 0.000000 0.000000 0.000000 70.333427 -6.609231 48.861454 4.848004 1.463196 -16.785004 -21.202272 6.964161 -16.017183 -39.581646 17.517616 -12.379491 52.359081 -0.525651 -19.918076 -17.208889 -1.979275 -7.292905 -27.840689 -16.454374 -8.948342 51.482529 1.045086 8.630630 -23.364309 -3.114867 9.455332 
-0.029231 45.818493 40.538452 2.096189 5.327999 -77.944588 3.746576 5.165965 -0.254634 0.000000 0.000000 0.000000 -22.901005 -4.102829 -14.549869 0.000000 0.000000 0.000000 0.000000 0.000000 0.000000 -85.018120 9.731666 41.848434 -12.197551 -2.611763 -7.675252 -3.911476 -11.297418 -33.984921 0.000000 0.000000 0.000000 69.378166 -6.650330 49.556190 5.535296 0.145249 -15.897224 -21.084589 6.702879 -17.358767 -34.457943 17.820793 -11.320869 47.901794 -2.288377 -18.997910 -15.357959 -0.654926 -6.373863 -26.626860 -15.924832 -6.774057 46.544655 1.035972 8.888860 -19.986767 -1.619923 9.700340 
-0.538623 46.955410 40.642738 0.860587 5.439283 -83.197441 2.087051 5.439427 0.176841 0.000000 0.000000 0.000000 -19.314056 -4.224952 -10.517734 0.000000 0.000000 0.000000 0.000000 0.000000 0.000000 -85.779022 11.567001 43.074409 -11.552352 -1.462166 -7.903457 -4.324480 -10.967389 -36.601963 0.000000 0.000000 0.000000 68.420761 -6.667851 50.264175 6.245645 -1.144147 -14.996770 -20.976494 6.447778 -18.701675 -29.340536 18.015564 -10.256723 43.367897 -3.987628 -17.949722 -13.485843 0.693239 -5.521608 -25.378351 -15.418338 -4.621780 41.597809 1.045300 9.126167 -16.585354 -0.109384 9.884199 
-0.628195 47.711182 40.592354 0.232854 5.105278 -86.092537 0.587884 5.712864 -0.175880 0.000000 0.000000 0.000000 -16.858788 -3.903128 -7.370932 0.000000 0.000000 0.000000 0.000000 0.000000 0.000000 -85.248604 12.551515 42.225136 -11.129129 -0.498725 -6.633377 -4.959810 -10.869303 -38.165253 0.000000 0.000000 0.000000 67.656837 -7.132586 51.291939 6.305802 -1.596260 -14.062934 -21.023638 6.377836 -19.613703 -25.050768 18.687761 -11.250651 37.969730 -6.486531 -14.718201 -12.585048 -0.048672 -4.983890 -22.942707 -14.721990 -3.919496 35.783783 0.537790 8.755844 -13.796721 0.881671 10.470490 
-0.715835 48.461216 40.541668 -0.367072 4.740878 -88.958771 -0.897096 5.976290 -0.548987 0.000000 0.000000 0.000000 -14.404992 -3.700915 -4.217841 0.000000 0.000000 0.000000 0.000000 0.000000 0.000000 -84.731239 13.546043 41.401985 -10.737668 0.454815 -5.382609 -5.598882 -10.792509 -39.707378 0.000000 0.000000 0.000000 66.880409 -7.587838 52.318932 6.382342 -2.046571 -13.129962 -21.073818 6.308049 -20.525017 -20.763956 19.419483 -12.140429 32.388779 -8.634130 -11.284326 -11.638761 -0.793316 -4.481250 -20.534286 -14.050694 -3.190171 30.013945 0.000571 8.444398 -11.033711 1.880606 11.032724 
-0.659852 48.785923 40.468899 -0.537654 4.384742 -90.014191 -1.947959 6.072581 -1.335134 0.000000 0.000000 0.000000 -12.915532 -3.415058 -2.367808 0.000000 0.000000 0.000000 0.000000 0.000000 0.000000 -83.825897 14.168139 41.684078 -10.823724 0.496070 -5.553687 -5.703491 -10.505097 -40.101479 0.000000 0.000000 0.000000 66.467415 -8.356308 52.471489 6.504864 -2.343884 -12.380594 -20.869596 6.421452 -20.714512 -17.222370 20.699800 -10.502759 27.474049 -9.374992 -9.907705 -10.971757 -2.234445 -5.381844 -18.463482 -13.464407 -1.923069 26.020296 -0.092866 6.938333 -9.235832 2.384515 11.472490 
-0.604390 49.106007 40.397388 -0.720660 4.035232 -91.051582 -2.987481 6.138515 -2.091120 0.000000 0.000000 0.000000 -11.424754 -3.173683 -0.548199 0.000000 0.000000 0.000000 0.000000 0.000000 0.000000 -82.907959 14.767162 42.007343 -10.918373 0.548536 -5.724462 -5.815575 -10.217447 -40.476761 0.000000 0.000000 0.000000 66.050278 -9.089780 52.646309 6.624239 -2.647002 -11.641922 -20.650110 6.536449 -20.918219 -13.642191 21.835651 -8.753068 22.578165 -9.981036 -8.491900 -10.310717 -3.648453 -6.225837 -16.425503 -12.909992 -0.676327 22.081964 -0.311842 5.467407 -7.448472 2.940629 11.861364 
-0.587596 49.083622 40.419773 -0.975390 4.126071 -91.051247 -2.553588 5.789523 -1.305008 0.000000 0.000000 0.000000 -11.159283 -2.997602 -0.988042 0.000000 0.000000 0.000000 0.000000 0.000000 0.000000 -81.218773 13.790851 44.990891 -11.151582 0.777089 -5.863572 -5.857717 -9.370975 -39.428020 0.000000 0.000000 0.000000 66.161125 -8.412232 54.064327 6.663055 -2.909389 -11.525853 -19.395075 7.753430 -22.130564 -13.071841 20.493441 -7.625922 21.518484 -9.536259 -8.387094 -9.681111 -3.223295 -5.891277 -16.238485 -12.127664 -0.746989 21.744923 -0.517383 5.167109 -7.516855 2.830836 10.865982 
-0.572361 49.060261 40.444691 -1.239804 4.217383 -91.048508 -2.110761 5.439221 -0.529598 0.000000 0.000000 0.000000 -10.896273 -2.831154 -1.427899 0.000000 0.000000 0.000000 0.000000 0.000000 0.000000 -79.574898 12.726619 47.961086 -11.393293 1.009745 -6.011665 -5.891171 -8.516191 -38.366360 0.000000 0.000000 0.000000 66.287766 -7.712914 55.491020 6.702102 -3.178921 -11.390679 -18.149300 9.008255 -23.326618 -12.545513 19.136921 -6.546616 20.429165 -9.091867 -8.239628 -9.049274 -2.797558 -5.562273 -16.053867 -11.337386 -0.815941 21.396608 -0.732558 4.846383 -7.625276 2.729205 9.896735 
-0.673130 48.965096 40.657433 -1.767717 4.294184 -90.785103 -1.407996 5.009545 0.539321 0.000000 0.000000 0.000000 -10.280991 -2.829910 -2.219877 0.000000 0.000000 0.000000 0.000000 0.000000 0.000000 -76.916710 10.638716 53.310406 -11.809025 1.349548 -6.566415 -5.832382 -6.970832 -36.553532 0.000000 0.000000 0.000000 66.568008 -6.560055 57.626198 6.797280 -3.680971 -10.974787 -16.084776 11.207658 -25.333626 -11.646946 16.539248 -4.726254 18.710201 -8.141006 -7.898480 -7.808534 -2.393642 -5.107933 -15.638693 -10.123284 -1.093758 20.984177 -0.888512 3.658296 -7.930360 2.580710 7.695089 
-0.773081 48.871998 40.867046 -2.285764 4.372657 -90.527443 -0.714448 4.558826 1.577381 0.000000 0.000000 0.000000 -9.675978 -2.828152 -3.002101 0.000000 0.000000 0.000000 0.000000 0.000000 0.000000 -74.512794 8.354926 58.431450 -12.209574 1.696326 -7.119606 -5.720926 -5.446378 -34.744827 0.000000 0.000000 0.000000 66.890350 -5.445792 59.731888 6.912211 -4.172778 -10.550092 -14.103379 13.447135 -27.241549 -10.827197 13.952056 -3.007881 16.991627 -7.197304 -7.549355 -6.635405 -1.974418 -4.683263 -15.229199 -8.932555 -1.371277 20.570868 -1.064185 2.448062 -8.261775 2.457375 5.541633 
-0.812269 48.933586 40.844650 -2.198360 3.847876 -90.613937 -0.452239 4.110643 1.047834 0.000000 0.000000 0.000000 -9.592167 -3.004811 -2.562240 0.000000 0.000000 0.000000 0.000000 0.000000 0.000000 -74.925606 8.516398 57.283997 -12.586725 1.517492 -7.328528 -5.151164 -4.469171 -33.330738 0.000000 0.000000 0.000000 66.982819 -5.519194 59.676792 7.720403 -4.212977 -10.326503 -13.611433 13.042916 -26.196596 -9.520711 13.964058 -2.775487 15.820617 -7.099781 -6.992645 -6.566627 -2.105977 -4.760958 -13.912906 -8.855408 -1.473604 19.294930 -0.771429 1.685180 -7.641028 2.339563 5.751233 
-0.852571 48.997021 40.822327 -2.110278 3.324787 -90.704025 -0.172577 3.661965 0.509271 0.000000 0.000000 0.000000 -9.511606 -3.181434 -2.113168 0.000000 0.000000 0.000000 0.000000 0.000000 0.000000 -75.334190 8.663503 56.121235 -12.973758 1.352459 -7.536071 -4.556016 -3.512446 -31.892786 0.000000 0.000000 0.000000 67.070313 -5.595467 59.614937 8.548302 -4.250648 -10.101171 -13.128653 12.643771 -25.138622 -8.211729 13.963313 -2.533069 14.595764 -6.981226 -6.428516 -6.446059 -2.256229 -4.855637 -12.585421 -8.767860 -1.574567 18.006052 -0.488288 0.913634 -7.015950 2.249361 5.973729 
